<?xml version="1.0" encoding="UTF-8"?>
<svg xmlns="http://www.w3.org/2000/svg" xmlns:xlink="http://www.w3.org/1999/xlink" width="50px" height="53px" viewBox="0 0 50 52" version="1.1">
<g id="surface1">
<path style=" stroke:none;fill-rule:nonzero;fill:rgb(0%,0%,0%);fill-opacity:1;" d="M 21.042969 3.445312 C 18.984375 4.824219 19.015625 4.761719 18.117188 7.847656 L 17.386719 10.339844 L 14.925781 10.539062 C 13.5625 10.667969 11.105469 10.769531 9.441406 10.800781 L 6.417969 10.832031 L 6.015625 13 L 5.617188 15.132812 L 7.015625 17.726562 L 8.410156 20.320312 L 5.75 23.210938 C 4.253906 24.785156 2.660156 26.460938 2.195312 26.886719 C 1.0625 27.9375 1.097656 28.460938 2.394531 30.234375 C 3.757812 32.074219 3.589844 31.976562 6.816406 32.828125 C 9.542969 33.550781 9.574219 33.582031 9.773438 34.765625 C 9.875 35.421875 9.972656 37.652344 9.972656 39.753906 L 9.972656 43.597656 L 12.132812 44.121094 L 14.296875 44.644531 L 16.921875 43.269531 L 19.582031 41.855469 L 23.238281 45.433594 L 26.863281 49.011719 L 28.824219 47.832031 C 30.75 46.683594 30.75 46.648438 31.582031 43.925781 L 32.445312 41.199219 L 37.5 41.003906 C 40.257812 40.902344 42.621094 40.738281 42.753906 40.640625 C 42.851562 40.542969 43.152344 39.558594 43.382812 38.476562 L 43.851562 36.503906 L 42.554688 34.109375 C 41.820312 32.828125 41.222656 31.644531 41.222656 31.515625 C 41.222656 31.382812 42.820312 29.644531 44.746094 27.609375 L 48.269531 23.964844 L 46.976562 22.09375 C 45.746094 20.289062 45.613281 20.1875 43.152344 19.433594 L 40.558594 18.679688 L 40.558594 13.855469 C 40.558594 11.195312 40.457031 8.699219 40.359375 8.304688 C 40.191406 7.746094 39.761719 7.550781 38.03125 7.222656 L 35.871094 6.859375 L 33.246094 8.273438 L 30.585938 9.683594 L 27.527344 6.730469 C 25.832031 5.089844 24.070312 3.414062 23.605469 3.019531 L 22.738281 2.296875 Z M 29.253906 10.242188 C 29.253906 10.40625 28.558594 10.503906 27.691406 10.503906 C 26.429688 10.472656 25.863281 10.273438 24.933594 9.519531 C 23.503906 8.273438 22.972656 8.273438 22.738281 9.519531 C 22.574219 10.273438 22.339844 10.503906 21.742188 10.503906 C 21.277344 10.503906 21.011719 10.339844 21.109375 10.078125 C 21.175781 9.882812 21.640625 8.371094 22.140625 6.761719 L 23.003906 3.839844 L 26.128906 6.925781 C 27.859375 8.601562 29.253906 10.109375 29.253906 10.242188 Z M 21.476562 5.152344 C 20.046875 10.109375 19.878906 10.503906 19.25 10.503906 C 18.917969 10.503906 18.617188 10.308594 18.617188 10.078125 C 18.617188 9.0625 19.980469 5.480469 20.511719 5.054688 C 21.34375 4.464844 21.675781 4.496094 21.476562 5.152344 Z M 38.132812 8.339844 C 38.164062 8.371094 36.902344 9.09375 35.339844 9.945312 C 32.679688 11.390625 32.414062 11.457031 31.949219 10.964844 C 31.648438 10.667969 31.550781 10.375 31.75 10.308594 C 31.949219 10.242188 32.980469 9.652344 34.074219 9.0625 C 35.570312 8.207031 36.304688 7.976562 37.066406 8.109375 C 37.601562 8.207031 38.097656 8.339844 38.132812 8.339844 Z M 39.496094 13.886719 L 39.59375 18.382812 L 38.066406 16.773438 C 36.800781 15.429688 36.570312 15.003906 36.570312 13.820312 C 36.570312 12.375 36.136719 12.113281 34.90625 12.867188 C 34.375 13.195312 34.175781 13.195312 33.742188 12.769531 C 33.277344 12.3125 33.511719 12.113281 35.972656 10.769531 C 37.5 9.914062 38.894531 9.289062 39.0625 9.324219 C 39.261719 9.390625 39.429688 11.261719 39.496094 13.886719 Z M 24.101562 10.175781 C 24.203125 10.339844 24.136719 10.503906 23.96875 10.503906 C 23.769531 10.503906 23.605469 10.339844 23.605469 10.175781 C 23.605469 9.980469 23.671875 9.847656 23.738281 9.847656 C 23.835938 9.847656 24.003906 9.980469 24.101562 10.175781 Z M 31.117188 11.523438 C 31.214844 11.71875 31.183594 12.015625 30.984375 12.210938 C 30.75 12.441406 30.519531 12.3125 30.285156 11.851562 C 29.953125 11.292969 29.988281 11.160156 30.386719 11.160156 C 30.652344 11.160156 30.984375 11.324219 31.117188 11.523438 Z M 16.953125 11.71875 C 16.953125 11.851562 16.390625 12.507812 15.726562 13.195312 C 14.628906 14.3125 14.296875 14.445312 12.898438 14.445312 C 11.203125 14.445312 10.9375 14.804688 11.667969 16.152344 C 11.933594 16.675781 11.933594 16.9375 11.535156 17.300781 C 11.105469 17.726562 10.871094 17.433594 9.507812 14.96875 C 8.675781 13.425781 7.980469 12.082031 7.980469 12.015625 C 7.980469 11.6875 9.339844 11.554688 13.066406 11.523438 C 15.191406 11.523438 16.953125 11.589844 16.953125 11.71875 Z M 19.613281 11.785156 C 19.613281 12.277344 19.082031 12.507812 18.484375 12.277344 C 17.652344 11.980469 17.851562 11.488281 18.785156 11.488281 C 19.25 11.488281 19.613281 11.621094 19.613281 11.785156 Z M 21.941406 11.882812 C 21.941406 12.640625 21.410156 13.164062 20.878906 12.96875 C 20.144531 12.671875 20.511719 11.488281 21.308594 11.488281 C 21.675781 11.488281 21.941406 11.6875 21.941406 11.882812 Z M 25.765625 11.816406 C 25.964844 12.113281 24.101562 13.460938 23.503906 13.460938 C 23.105469 13.460938 22.839844 12.539062 23.070312 11.980469 C 23.269531 11.425781 25.433594 11.292969 25.765625 11.816406 Z M 29.386719 12.34375 C 29.652344 13.066406 29.652344 13.132812 29.121094 13.132812 C 28.523438 13.132812 28.160156 12.605469 28.425781 12.144531 C 28.722656 11.652344 29.15625 11.753906 29.386719 12.34375 Z M 27.558594 13.230469 C 28.058594 13.855469 27.691406 14.117188 26.296875 14.117188 L 25.101562 14.117188 L 25.929688 13.460938 C 26.929688 12.703125 27.0625 12.671875 27.558594 13.230469 Z M 32.878906 13.261719 C 33.210938 13.65625 33.144531 13.820312 32.578125 14.117188 C 32.214844 14.3125 31.75 14.378906 31.582031 14.28125 C 31.117188 13.984375 31.183594 13.230469 31.683594 13.03125 C 32.347656 12.738281 32.480469 12.769531 32.878906 13.261719 Z M 8.941406 16.117188 C 10.140625 18.316406 10.238281 18.679688 9.808594 19.039062 C 9.175781 19.566406 9.308594 19.664062 7.878906 17.070312 C 7.015625 15.527344 6.75 14.675781 6.882812 14.019531 C 7.113281 12.867188 7.28125 13.03125 8.941406 16.117188 Z M 18.617188 13.460938 C 19.148438 13.789062 19.050781 13.984375 18.285156 14.183594 C 17.785156 14.28125 17.621094 14.117188 17.621094 13.460938 C 17.621094 13.066406 17.953125 13.03125 18.617188 13.460938 Z M 35.902344 16.773438 C 35.902344 17.136719 33.808594 16.9375 33.179688 16.546875 C 32.710938 16.25 32.914062 15.132812 33.511719 14.804688 C 33.941406 14.511719 34.273438 14.640625 35.007812 15.429688 C 35.503906 15.988281 35.902344 16.578125 35.902344 16.773438 Z M 18.085938 15.394531 C 18.183594 15.527344 17.886719 16.019531 17.453125 16.414062 C 16.589844 17.203125 16.355469 16.875 16.953125 15.726562 C 17.320312 15.066406 17.785156 14.902344 18.085938 15.394531 Z M 24.136719 15.460938 C 24.433594 15.988281 23.570312 16.445312 22.773438 16.21875 C 21.839844 15.921875 21.742188 15.757812 22.273438 15.429688 C 22.9375 15.003906 23.835938 15.035156 24.136719 15.460938 Z M 15.625 15.890625 C 15.625 16.808594 14.960938 18.054688 14.496094 18.054688 C 14.230469 18.054688 13.863281 17.792969 13.664062 17.464844 C 13.429688 17.039062 13.53125 16.710938 14.027344 16.152344 C 14.828125 15.332031 15.625 15.199219 15.625 15.890625 Z M 31.847656 18.023438 C 31.914062 18.382812 31.78125 18.710938 31.550781 18.710938 C 31.082031 18.710938 30.285156 17.726562 30.253906 17.167969 C 30.253906 16.445312 31.75 17.234375 31.847656 18.023438 Z M 29.253906 17.726562 C 29.253906 17.890625 29.121094 18.054688 28.921875 18.054688 C 28.757812 18.054688 28.589844 17.890625 28.589844 17.726562 C 28.589844 17.53125 28.757812 17.398438 28.921875 17.398438 C 29.121094 17.398438 29.253906 17.53125 29.253906 17.726562 Z M 13.097656 18.546875 C 13.199219 18.8125 13 19.171875 12.667969 19.367188 C 12.167969 19.597656 12 19.566406 11.835938 19.171875 C 11.734375 18.875 11.703125 18.515625 11.835938 18.351562 C 12.101562 17.890625 12.867188 17.988281 13.097656 18.546875 Z M 35.539062 18.351562 C 35.769531 18.515625 35.9375 18.777344 35.871094 18.976562 C 35.804688 19.171875 35.40625 19.039062 34.941406 18.679688 C 34.175781 18.054688 34.640625 17.792969 35.539062 18.351562 Z M 23.269531 19.039062 C 23.269531 19.203125 23.105469 19.367188 22.90625 19.367188 C 22.738281 19.367188 22.671875 19.203125 22.773438 19.039062 C 22.871094 18.84375 23.039062 18.710938 23.136719 18.710938 C 23.203125 18.710938 23.269531 18.84375 23.269531 19.039062 Z M 26.894531 19.566406 C 27.09375 20.058594 27.226562 20.453125 27.195312 20.519531 C 27.128906 20.550781 26.496094 20.386719 25.796875 20.1875 L 24.46875 19.828125 L 25.265625 19.269531 C 26.328125 18.546875 26.429688 18.546875 26.894531 19.566406 Z M 37.699219 19.007812 C 37.964844 19.402344 37.601562 20.355469 37.199219 20.355469 C 37.035156 20.355469 36.902344 19.992188 36.902344 19.53125 C 36.902344 18.710938 37.367188 18.417969 37.699219 19.007812 Z M 17.289062 19.367188 C 17.289062 19.761719 15.957031 20.484375 15.726562 20.222656 C 15.425781 19.960938 16.289062 19.039062 16.820312 19.039062 C 17.085938 19.039062 17.289062 19.171875 17.289062 19.367188 Z M 30.085938 21.273438 C 29.753906 21.601562 28.921875 20.976562 28.390625 19.960938 L 27.859375 18.875 L 29.054688 19.992188 C 29.6875 20.617188 30.1875 21.207031 30.085938 21.273438 Z M 39.5625 20.1875 C 39.5625 20.714844 39.363281 21.011719 39.0625 21.011719 C 38.53125 21.011719 38.429688 20.714844 38.761719 19.894531 C 39.0625 19.074219 39.5625 19.269531 39.5625 20.1875 Z M 10.804688 20.320312 C 10.703125 20.519531 10.4375 20.683594 10.238281 20.683594 C 10.039062 20.683594 10.039062 20.484375 10.304688 20.1875 C 10.769531 19.632812 11.171875 19.761719 10.804688 20.320312 Z M 13.363281 20.746094 C 13.164062 20.945312 12.867188 21.011719 12.734375 20.878906 C 12.601562 20.746094 12.699219 20.519531 12.964844 20.355469 C 13.597656 19.960938 13.863281 20.253906 13.363281 20.746094 Z M 18.75 20.714844 C 18.351562 21.140625 18.085938 21.238281 18.019531 21.011719 C 17.917969 20.78125 18.085938 20.484375 18.316406 20.320312 C 19.148438 19.796875 19.382812 20.023438 18.75 20.714844 Z M 43.285156 20.550781 C 44.8125 20.976562 45.347656 21.304688 45.746094 22.0625 C 46.242188 22.980469 46.242188 23.011719 45.378906 22.78125 C 42.054688 21.960938 40.726562 21.371094 40.625 20.714844 C 40.492188 19.894531 40.757812 19.859375 43.285156 20.550781 Z M 26.496094 21.503906 C 28.023438 21.960938 28.359375 22.257812 29.222656 23.703125 C 30.1875 25.375 30.1875 25.410156 29.6875 27.050781 C 29.054688 29.21875 28.855469 29.414062 26.296875 30.660156 C 24.167969 31.710938 24.070312 31.710938 22.507812 31.285156 C 21.042969 30.859375 20.84375 30.660156 19.847656 28.660156 L 18.75 26.523438 L 19.382812 24.324219 C 19.980469 22.289062 20.179688 22.027344 21.542969 21.273438 C 22.707031 20.617188 23.269531 20.484375 23.902344 20.683594 C 24.367188 20.847656 25.53125 21.207031 26.496094 21.503906 Z M 11.96875 21.796875 C 11.96875 22.027344 11.769531 22.421875 11.503906 22.617188 C 11.136719 22.914062 11.003906 22.882812 10.835938 22.453125 C 10.738281 22.160156 10.703125 21.796875 10.835938 21.632812 C 11.105469 21.175781 11.96875 21.273438 11.96875 21.796875 Z M 16.621094 21.667969 C 16.621094 21.832031 16.488281 21.996094 16.289062 21.996094 C 16.125 21.996094 15.957031 21.832031 15.957031 21.667969 C 15.957031 21.46875 16.125 21.339844 16.289062 21.339844 C 16.488281 21.339844 16.621094 21.46875 16.621094 21.667969 Z M 34.242188 21.996094 C 34.242188 22.421875 34.074219 22.585938 33.742188 22.453125 C 33.210938 22.226562 33.113281 21.894531 33.476562 21.566406 C 33.875 21.140625 34.242188 21.339844 34.242188 21.996094 Z M 9.441406 22.191406 C 9.972656 23.539062 9.640625 24.785156 8.445312 25.96875 C 7.046875 27.378906 7.113281 28.035156 8.609375 28.332031 C 9.375 28.496094 9.640625 28.726562 9.640625 29.25 C 9.640625 29.742188 9.476562 29.90625 9.074219 29.773438 C 8.742188 29.710938 7.246094 29.28125 5.75 28.890625 C 4.222656 28.460938 2.992188 27.96875 2.992188 27.773438 C 2.992188 27.410156 8.644531 21.667969 9.007812 21.667969 C 9.140625 21.667969 9.339844 21.894531 9.441406 22.191406 Z M 39.5625 22.980469 C 39.5625 23.964844 38.894531 24.292969 38.03125 23.703125 C 37.433594 23.339844 38.097656 21.996094 38.894531 21.996094 C 39.429688 21.996094 39.5625 22.226562 39.5625 22.980469 Z M 30.917969 22.945312 C 30.917969 23.503906 30.320312 23.636719 30.121094 23.144531 C 30.019531 22.847656 30.121094 22.652344 30.417969 22.652344 C 30.683594 22.652344 30.917969 22.78125 30.917969 22.945312 Z M 43.714844 23.375 C 45.078125 23.769531 46.210938 24.226562 46.210938 24.390625 C 46.210938 24.882812 41.15625 29.875 40.859375 29.675781 C 40.390625 29.382812 40.523438 27.082031 41.058594 26.394531 C 41.6875 25.574219 41.6875 24.753906 41.058594 24.488281 C 40.492188 24.292969 40.359375 22.652344 40.890625 22.652344 C 41.089844 22.652344 42.355469 22.980469 43.714844 23.375 Z M 12.964844 24.359375 L 12.933594 25.769531 L 12.265625 24.980469 C 11.667969 24.261719 11.636719 24.160156 12.167969 23.605469 C 12.5 23.242188 12.800781 22.980469 12.867188 22.980469 C 12.898438 22.980469 12.964844 23.605469 12.964844 24.359375 Z M 15.625 23.273438 C 15.625 23.832031 15.226562 24.621094 14.925781 24.621094 C 14.761719 24.621094 14.628906 24.261719 14.628906 23.800781 C 14.628906 23.273438 14.828125 22.980469 15.125 22.980469 C 15.390625 22.980469 15.625 23.109375 15.625 23.273438 Z M 18.582031 23.375 C 18.582031 23.605469 18.449219 24.097656 18.285156 24.457031 C 18.050781 25.015625 17.984375 24.949219 17.984375 24.03125 C 17.953125 23.472656 18.117188 22.980469 18.285156 22.980469 C 18.484375 22.980469 18.617188 23.175781 18.582031 23.375 Z M 32.179688 25.835938 C 32.082031 26.753906 32.082031 26.753906 31.648438 26.03125 C 31.351562 25.476562 31.351562 25.113281 31.648438 24.390625 C 32.015625 23.503906 32.046875 23.503906 32.148438 24.195312 C 32.246094 24.621094 32.246094 25.34375 32.179688 25.835938 Z M 35.703125 24.261719 C 35.9375 24.589844 34.972656 25.476562 34.707031 25.179688 C 34.410156 24.917969 34.808594 23.964844 35.207031 23.964844 C 35.371094 23.964844 35.605469 24.097656 35.703125 24.261719 Z M 39.5625 25.769531 C 39.5625 26 39.363281 26.359375 39.097656 26.558594 C 38.695312 26.886719 38.496094 26.789062 38.097656 25.96875 C 37.398438 24.652344 37.398438 24.589844 38.5625 24.980469 C 39.128906 25.179688 39.5625 25.539062 39.5625 25.769531 Z M 11.636719 26.097656 C 12.398438 27.347656 12.300781 27.902344 11.269531 27.902344 C 10.738281 27.902344 10.636719 27.675781 10.636719 26.425781 C 10.636719 25.605469 10.703125 24.949219 10.769531 24.949219 C 10.835938 24.949219 11.238281 25.476562 11.636719 26.097656 Z M 16.953125 26.820312 C 16.953125 27.96875 16.855469 28.265625 16.621094 27.902344 C 16.089844 27.082031 16.257812 25.277344 16.855469 25.277344 C 16.921875 25.277344 16.953125 25.96875 16.953125 26.820312 Z M 9.640625 26.984375 C 9.640625 27.511719 9.542969 27.609375 9.273438 27.347656 C 9.074219 27.148438 9.007812 26.820312 9.109375 26.625 C 9.476562 26.066406 9.640625 26.195312 9.640625 26.984375 Z M 14.925781 26.984375 C 14.925781 27.214844 14.792969 27.707031 14.628906 28.066406 C 14.394531 28.625 14.328125 28.5625 14.328125 27.640625 C 14.296875 27.082031 14.460938 26.589844 14.628906 26.589844 C 14.828125 26.589844 14.960938 26.789062 14.925781 26.984375 Z M 37.601562 28.332031 C 37.332031 28.59375 37.234375 28.429688 37.234375 27.707031 C 37.265625 26.886719 37.300781 26.820312 37.601562 27.347656 C 37.867188 27.804688 37.867188 28.066406 37.601562 28.332031 Z M 31.25 27.738281 C 31.25 28.003906 31.117188 28.230469 30.917969 28.230469 C 30.75 28.230469 30.585938 28.003906 30.585938 27.738281 C 30.585938 27.476562 30.75 27.246094 30.917969 27.246094 C 31.117188 27.246094 31.25 27.476562 31.25 27.738281 Z M 39.894531 28.230469 C 39.894531 28.394531 39.828125 28.5625 39.761719 28.5625 C 39.660156 28.5625 39.496094 28.394531 39.394531 28.230469 C 39.296875 28.035156 39.363281 27.902344 39.527344 27.902344 C 39.726562 27.902344 39.894531 28.035156 39.894531 28.230469 Z M 18.949219 29.21875 C 19.347656 29.972656 19.347656 30.003906 18.851562 29.578125 C 18.515625 29.347656 18.285156 28.921875 18.285156 28.625 C 18.285156 28.035156 18.382812 28.101562 18.949219 29.21875 Z M 34.609375 28.890625 C 35.105469 28.890625 34.941406 29.445312 34.339844 29.675781 C 34.042969 29.808594 33.675781 29.710938 33.511719 29.480469 C 33.113281 28.789062 33.210938 28.460938 33.777344 28.691406 C 34.074219 28.789062 34.441406 28.890625 34.609375 28.890625 Z M 11.46875 29.644531 C 11.46875 30.496094 10.804688 30.464844 10.703125 29.578125 C 10.605469 29.054688 10.738281 28.855469 11.039062 28.953125 C 11.269531 29.054688 11.46875 29.347656 11.46875 29.644531 Z M 38.363281 30.433594 C 37.800781 30.824219 37.734375 30.824219 37.632812 30.367188 C 37.566406 30.070312 37.699219 29.609375 37.933594 29.347656 C 38.296875 28.890625 38.398438 28.921875 38.664062 29.414062 C 38.894531 29.839844 38.828125 30.105469 38.363281 30.433594 Z M 7.148438 30.367188 C 9.074219 30.925781 9.507812 31.1875 9.574219 31.8125 C 9.675781 32.367188 9.574219 32.53125 9.242188 32.433594 C 9.007812 32.335938 7.777344 32.007812 6.515625 31.644531 C 4.820312 31.1875 4.089844 30.792969 3.589844 30.105469 L 2.925781 29.183594 L 3.890625 29.414062 C 4.386719 29.546875 5.882812 29.972656 7.148438 30.367188 Z M 31.25 29.316406 C 31.25 29.382812 30.851562 29.773438 30.386719 30.234375 C 29.554688 30.957031 29.519531 30.988281 29.886719 30.300781 C 30.1875 29.710938 30.519531 29.445312 31.183594 29.25 C 31.214844 29.21875 31.25 29.25 31.25 29.316406 Z M 13.296875 30.203125 C 13.296875 30.5625 13.097656 30.859375 12.832031 30.859375 C 12.535156 30.859375 12.433594 30.628906 12.535156 30.203125 C 12.632812 29.839844 12.832031 29.546875 13 29.546875 C 13.164062 29.546875 13.296875 29.839844 13.296875 30.203125 Z M 17.222656 31.449219 C 17.355469 32.269531 17.019531 32.367188 16.125 31.746094 C 15.792969 31.480469 15.625 31.121094 15.757812 30.890625 C 16.15625 30.269531 17.121094 30.628906 17.222656 31.449219 Z M 28.292969 31.746094 C 28.089844 32.402344 27.859375 32.632812 27.394531 32.566406 C 25.863281 32.335938 25.765625 32.140625 26.929688 31.515625 C 28.457031 30.695312 28.589844 30.695312 28.292969 31.746094 Z M 20.414062 32.46875 C 20.976562 33.089844 20.976562 33.15625 20.511719 33.15625 C 19.878906 33.15625 18.617188 32.039062 18.617188 31.515625 C 18.617188 31.054688 19.613281 31.582031 20.414062 32.46875 Z M 39.230469 31.679688 C 38.996094 31.976562 38.730469 32.105469 38.664062 32.039062 C 38.429688 31.8125 38.894531 31.1875 39.296875 31.1875 C 39.496094 31.1875 39.496094 31.382812 39.230469 31.679688 Z M 33.609375 32.007812 C 33.609375 32.203125 33.277344 32.402344 32.847656 32.433594 C 32.214844 32.566406 32.179688 32.5 32.546875 32.039062 C 33.046875 31.480469 33.644531 31.449219 33.609375 32.007812 Z M 12.765625 32.039062 C 13.332031 32.238281 13.53125 33.484375 13 33.484375 C 12.199219 33.484375 11.734375 33.058594 11.867188 32.46875 C 12.066406 31.777344 12.066406 31.777344 12.765625 32.039062 Z M 22.605469 32.5 C 22.605469 32.664062 22.472656 32.828125 22.273438 32.828125 C 22.109375 32.828125 21.941406 32.664062 21.941406 32.5 C 21.941406 32.304688 22.109375 32.171875 22.273438 32.171875 C 22.472656 32.171875 22.605469 32.304688 22.605469 32.5 Z M 15.589844 33.386719 C 16.421875 34.402344 16.324219 34.601562 15.160156 34.175781 C 14.628906 33.945312 14.296875 33.582031 14.296875 33.15625 C 14.296875 32.269531 14.792969 32.335938 15.589844 33.386719 Z M 37.667969 32.960938 C 37.765625 33.222656 37.566406 33.683594 37.199219 34.011719 C 36.636719 34.535156 36.46875 34.535156 36.238281 34.140625 C 35.804688 33.453125 35.835938 32.925781 36.335938 32.730469 C 37.066406 32.402344 37.5 32.5 37.667969 32.960938 Z M 41.523438 34.4375 C 42.554688 36.375 42.753906 37.226562 42.355469 38.246094 C 42.1875 38.640625 41.722656 38.015625 40.660156 36.109375 C 39.496094 33.976562 39.261719 33.320312 39.59375 32.960938 C 40.191406 32.238281 40.390625 32.367188 41.523438 34.4375 Z M 30.585938 34.175781 C 30.585938 34.632812 30.417969 34.796875 30.019531 34.730469 C 29.253906 34.601562 29.089844 33.910156 29.820312 33.714844 C 30.152344 33.617188 30.453125 33.550781 30.519531 33.519531 C 30.550781 33.519531 30.585938 33.78125 30.585938 34.175781 Z M 18.949219 34.503906 C 18.949219 34.699219 18.816406 34.730469 18.617188 34.632812 C 18.449219 34.535156 18.285156 34.273438 18.285156 34.109375 C 18.285156 33.910156 18.449219 33.878906 18.617188 33.976562 C 18.816406 34.074219 18.949219 34.339844 18.949219 34.503906 Z M 26.097656 34.140625 C 25.832031 34.566406 24.601562 34.566406 23.9375 34.140625 C 23.570312 33.910156 23.835938 33.8125 24.867188 33.8125 C 25.730469 33.8125 26.230469 33.945312 26.097656 34.140625 Z M 35.4375 35.652344 C 35.238281 36.144531 34.339844 36.636719 34.074219 36.375 C 33.976562 36.308594 34.074219 35.683594 34.273438 34.996094 C 34.609375 33.746094 34.640625 33.746094 35.140625 34.4375 C 35.40625 34.832031 35.539062 35.390625 35.4375 35.652344 Z M 12.535156 35.191406 C 13.332031 35.945312 13.628906 36.539062 13.628906 37.324219 C 13.628906 38.507812 13.695312 38.574219 14.59375 38.082031 C 15.058594 37.851562 15.359375 37.949219 15.925781 38.539062 L 16.65625 39.296875 L 13.960938 40.707031 C 12.464844 41.460938 11.203125 42.019531 11.136719 41.953125 C 11.105469 41.921875 10.9375 40.117188 10.804688 37.980469 C 10.539062 33.648438 10.671875 33.417969 12.535156 35.191406 Z M 41.058594 39.722656 C 40.824219 40.082031 32.914062 40.183594 32.914062 39.820312 C 32.914062 39.6875 33.378906 39.097656 33.976562 38.507812 C 34.742188 37.71875 35.339844 37.425781 36.105469 37.425781 C 37.367188 37.425781 37.734375 37.03125 37.265625 36.210938 C 37.035156 35.75 37.101562 35.453125 37.632812 34.863281 L 38.363281 34.140625 L 39.792969 36.769531 C 40.589844 38.210938 41.15625 39.558594 41.058594 39.722656 Z M 33.011719 35.519531 C 32.878906 36.144531 32.613281 36.4375 32.214844 36.4375 C 31.582031 36.4375 31.582031 36.40625 32.28125 35.453125 C 33.144531 34.304688 33.246094 34.304688 33.011719 35.519531 Z M 23.171875 35.355469 C 23.304688 35.71875 22.308594 36.242188 22.007812 35.980469 C 21.941406 35.882812 21.941406 35.585938 22.074219 35.289062 C 22.273438 34.699219 22.972656 34.765625 23.171875 35.355469 Z M 15.859375 35.488281 C 16.6875 35.78125 16.722656 35.847656 16.191406 36.144531 C 15.589844 36.503906 14.628906 36.046875 14.628906 35.421875 C 14.628906 35.0625 14.726562 35.0625 15.859375 35.488281 Z M 26.597656 36.109375 C 27.027344 36.375 27.027344 36.4375 26.527344 36.4375 C 26.230469 36.4375 25.863281 36.273438 25.765625 36.109375 C 25.5 35.683594 25.929688 35.683594 26.597656 36.109375 Z M 19.945312 37.261719 C 19.945312 37.753906 19.25 37.652344 18.949219 37.097656 C 18.582031 36.4375 18.617188 36.40625 19.25 36.769531 C 19.648438 36.964844 19.945312 37.195312 19.945312 37.261719 Z M 17.953125 37.425781 C 18.515625 38.507812 17.984375 38.867188 17.085938 38.046875 C 16.488281 37.488281 16.390625 37.226562 16.6875 37.03125 C 17.355469 36.636719 17.554688 36.703125 17.953125 37.425781 Z M 29.585938 37.753906 C 29.585938 37.917969 29.289062 38.082031 28.921875 38.082031 C 28.558594 38.082031 28.257812 37.917969 28.257812 37.753906 C 28.257812 37.554688 28.558594 37.425781 28.921875 37.425781 C 29.289062 37.425781 29.585938 37.554688 29.585938 37.753906 Z M 32.179688 38.144531 C 32.113281 38.703125 31.882812 38.867188 31.417969 38.804688 C 30.550781 38.640625 30.453125 38.539062 30.683594 37.917969 C 30.816406 37.652344 31.214844 37.425781 31.582031 37.425781 C 32.113281 37.425781 32.28125 37.589844 32.179688 38.144531 Z M 24.269531 37.917969 C 24.269531 37.980469 23.96875 38.210938 23.636719 38.375 C 23.171875 38.640625 22.90625 38.605469 22.605469 38.246094 C 22.242188 37.816406 22.339844 37.753906 23.238281 37.753906 C 23.804688 37.753906 24.269531 37.816406 24.269531 37.917969 Z M 21.574219 38.867188 C 21.910156 39.261719 21.839844 39.425781 21.34375 39.6875 C 20.84375 39.953125 20.578125 39.917969 20.277344 39.558594 C 19.847656 39.03125 20.078125 38.410156 20.746094 38.410156 C 21.011719 38.410156 21.375 38.605469 21.574219 38.867188 Z M 26.128906 38.933594 C 26.03125 39.230469 25.929688 39.589844 25.929688 39.753906 C 25.929688 40.148438 24.367188 40.148438 24.101562 39.722656 C 24.003906 39.558594 24.335938 39.195312 24.832031 38.933594 C 26.03125 38.277344 26.394531 38.277344 26.128906 38.933594 Z M 28.921875 39.589844 C 28.921875 39.886719 28.558594 40.050781 27.925781 40.050781 C 26.863281 40.050781 26.828125 40.019531 27.128906 39.296875 C 27.328125 38.703125 28.921875 38.96875 28.921875 39.589844 Z M 18.285156 40.542969 C 18.785156 41.132812 18.949219 41.003906 16.488281 42.28125 C 14.5625 43.300781 12.867188 43.628906 12.5 43.039062 C 12.300781 42.742188 16.722656 40.117188 17.488281 40.082031 C 17.6875 40.050781 18.050781 40.28125 18.285156 40.542969 Z M 24.699219 41.691406 C 25.167969 42.054688 25.699219 42.347656 25.863281 42.347656 C 26.0625 42.347656 26.328125 42.054688 26.429688 41.691406 C 26.597656 41.230469 26.929688 41.035156 27.660156 41.035156 C 28.359375 41.035156 28.625 41.167969 28.492188 41.460938 C 28.390625 41.691406 27.992188 43.070312 27.59375 44.480469 C 27.195312 45.925781 26.796875 47.175781 26.761719 47.207031 C 26.527344 47.46875 20.644531 41.59375 20.8125 41.332031 C 21.144531 40.773438 23.804688 41.003906 24.699219 41.691406 Z M 31.25 41.230469 C 31.25 41.363281 30.949219 42.445312 30.585938 43.660156 C 30.121094 45.238281 29.652344 46.058594 29.054688 46.453125 C 28.589844 46.746094 28.160156 46.945312 28.089844 46.878906 C 28.058594 46.8125 28.390625 45.5 28.855469 43.890625 C 29.621094 41.363281 29.789062 41.035156 30.484375 41.035156 C 30.917969 41.035156 31.25 41.132812 31.25 41.230469 Z M 31.25 41.230469 "/>
</g>
</svg>
