<?xml version="1.0" standalone="no"?>
<!DOCTYPE svg PUBLIC "-//W3C//DTD SVG 20010904//EN"
 "http://www.w3.org/TR/2001/REC-SVG-20010904/DTD/svg10.dtd">
<svg version="1.0" xmlns="http://www.w3.org/2000/svg"
 width="150.000000pt" height="158.000000pt" viewBox="0 0 150.000000 158.000000"
 preserveAspectRatio="xMidYMid meet">

<g transform="translate(0.000000,158.000000) scale(0.100000,-0.100000)"
fill="#000000" stroke="none">
<path d="M633 1475 c-62 -42 -61 -40 -88 -134 l-22 -76 -74 -6 c-41 -4 -115
-7 -165 -8 l-91 -1 -12 -66 -12 -65 42 -79 42 -79 -80 -88 c-45 -48 -93 -99
-107 -112 -34 -32 -33 -48 6 -102 41 -56 36 -53 133 -79 82 -22 83 -23 89 -59
3 -20 6 -88 6 -152 l0 -117 65 -16 65 -16 79 42 80 43 110 -109 109 -109 59
36 c58 35 58 36 83 119 l26 83 152 6 c83 3 154 8 158 11 3 3 12 33 19 66 l14
60 -39 73 c-22 39 -40 75 -40 79 0 4 48 57 106 119 l106 111 -39 57 c-37 55
-41 58 -115 81 l-78 23 0 147 c0 81 -3 157 -6 169 -5 17 -18 23 -70 33 l-65
11 -79 -43 -80 -43 -92 90 c-51 50 -104 101 -118 113 l-26 22 -51 -35z m247
-207 c0 -5 -21 -8 -47 -8 -38 1 -55 7 -83 30 -43 38 -59 38 -66 0 -5 -23 -12
-30 -30 -30 -14 0 -22 5 -19 13 2 6 16 52 31 101 l26 89 94 -94 c52 -51 94
-97 94 -101z m-234 155 c-43 -151 -48 -163 -67 -163 -10 0 -19 6 -19 13 0 31
41 140 57 153 25 18 35 17 29 -3z m501 -97 c1 -1 -37 -23 -84 -49 -80 -44 -88
-46 -102 -31 -9 9 -12 18 -6 20 6 2 37 20 70 38 45 26 67 33 90 29 16 -3 31
-7 32 -7z m41 -169 l3 -137 -46 49 c-38 41 -45 54 -45 90 0 44 -13 52 -50 29
-16 -10 -22 -10 -35 3 -14 14 -7 20 67 61 46 26 88 45 93 44 6 -2 11 -59 13
-139z m-463 113 c3 -5 1 -10 -4 -10 -6 0 -11 5 -11 10 0 6 2 10 4 10 3 0 8 -4
11 -10z m211 -41 c3 -6 2 -15 -4 -21 -7 -7 -14 -3 -21 11 -10 17 -9 21 3 21 8
0 18 -5 22 -11z m-426 -6 c0 -4 -17 -24 -37 -45 -33 -34 -43 -38 -85 -38 -51
0 -59 -11 -37 -52 8 -16 8 -24 -4 -35 -13 -13 -20 -4 -61 71 -25 47 -46 88
-46 90 0 10 41 14 153 15 64 0 117 -2 117 -6z m80 -2 c0 -15 -16 -22 -34 -15
-25 9 -19 24 9 24 14 0 25 -4 25 -9z m70 -3 c0 -23 -16 -39 -32 -33 -22 9 -11
45 13 45 11 0 19 -6 19 -12z m115 2 c6 -9 -50 -50 -68 -50 -12 0 -20 28 -13
45 6 17 71 21 81 5z m109 -16 c8 -22 8 -24 -8 -24 -18 0 -29 16 -21 30 9 15
22 12 29 -6z m-55 -27 c15 -19 4 -27 -38 -27 l-36 0 25 20 c30 23 34 24 49 7z
m160 -1 c10 -12 8 -17 -9 -26 -11 -6 -25 -8 -30 -5 -14 9 -12 32 3 38 20 9 24
8 36 -7z m-720 -87 c36 -67 39 -78 26 -89 -19 -16 -15 -19 -58 60 -26 47 -34
73 -30 93 7 35 12 30 62 -64z m291 81 c16 -10 13 -16 -10 -22 -15 -3 -20 2
-20 22 0 12 10 13 30 0z m520 -101 c0 -11 -63 -5 -82 7 -14 9 -8 43 10 53 13
9 23 5 45 -19 15 -17 27 -35 27 -41z m-536 42 c3 -4 -6 -19 -19 -31 -26 -24
-33 -14 -15 21 11 20 25 25 34 10z m182 -2 c9 -16 -17 -30 -41 -23 -28 9 -31
14 -15 24 20 13 47 12 56 -1z m-256 -13 c0 -28 -20 -66 -34 -66 -8 0 -19 8
-25 18 -7 13 -4 23 11 40 24 25 48 29 48 8z m488 -65 c2 -11 -2 -21 -9 -21
-14 0 -38 30 -39 47 0 22 45 -2 48 -26z m-78 9 c0 -5 -4 -10 -10 -10 -5 0 -10
5 -10 10 0 6 5 10 10 10 6 0 10 -4 10 -10z m-486 -25 c3 -8 -3 -19 -13 -25
-15 -7 -20 -6 -25 6 -3 9 -4 20 0 25 8 14 31 11 38 -6z m675 6 c7 -5 12 -13
10 -19 -2 -6 -14 -2 -28 9 -23 19 -9 27 18 10z m-369 -21 c0 -5 -5 -10 -11
-10 -5 0 -7 5 -4 10 3 6 8 10 11 10 2 0 4 -4 4 -10z m109 -16 c6 -15 10 -27 9
-29 -2 -1 -21 4 -42 10 l-40 11 24 17 c32 22 35 22 49 -9z m325 17 c8 -12 -3
-41 -15 -41 -5 0 -9 11 -9 25 0 25 14 34 24 16z m-614 -11 c0 -12 -40 -34 -47
-26 -9 8 17 36 33 36 8 0 14 -4 14 -10z m385 -58 c-10 -10 -35 9 -51 40 l-16
33 36 -34 c19 -19 34 -37 31 -39z m285 33 c0 -16 -6 -25 -15 -25 -16 0 -19 9
-9 34 9 25 24 19 24 -9z m-865 -4 c-3 -6 -11 -11 -17 -11 -6 0 -6 6 2 15 14
17 26 13 15 -4z m77 -13 c-6 -6 -15 -8 -19 -4 -4 4 -1 11 7 16 19 12 27 3 12
-12z m162 1 c-12 -13 -20 -16 -22 -9 -3 7 2 16 9 21 25 16 32 9 13 -12z m738
5 c46 -13 62 -23 74 -46 15 -28 15 -29 -11 -22 -100 25 -140 43 -143 63 -4 25
4 26 80 5z m-505 -29 c46 -14 56 -23 82 -67 29 -51 29 -52 14 -102 -19 -66
-25 -72 -102 -110 -64 -32 -67 -32 -114 -19 -44 13 -50 19 -80 80 l-33 65 19
67 c18 62 24 70 65 93 35 20 52 24 71 18 14 -5 49 -16 78 -25z m-437 -9 c0 -7
-6 -19 -14 -25 -11 -9 -15 -8 -20 5 -3 9 -4 20 0 25 8 14 34 11 34 -5z m140 4
c0 -5 -4 -10 -10 -10 -5 0 -10 5 -10 10 0 6 5 10 10 10 6 0 10 -4 10 -10z
m530 -10 c0 -13 -5 -18 -15 -14 -16 7 -19 17 -8 27 12 13 23 7 23 -13z m-746
-6 c16 -41 6 -79 -30 -115 -42 -43 -40 -63 5 -72 23 -5 31 -12 31 -28 0 -15
-5 -20 -17 -16 -10 2 -55 15 -100 27 -46 13 -83 28 -83 34 0 11 170 186 181
186 4 0 10 -7 13 -16z m906 -24 c0 -30 -20 -40 -46 -22 -18 11 2 52 26 52 16
0 20 -7 20 -30z m-260 1 c0 -17 -18 -21 -24 -6 -3 9 0 15 9 15 8 0 15 -4 15
-9z m385 -13 c41 -12 75 -26 75 -31 0 -15 -152 -167 -161 -161 -14 9 -10 79 6
100 19 25 19 50 0 58 -17 6 -21 56 -5 56 6 0 44 -10 85 -22z m-925 -30 l-1
-43 -20 24 c-18 22 -19 25 -3 42 10 11 19 19 21 19 1 0 3 -19 3 -42z m80 33
c0 -17 -12 -41 -21 -41 -5 0 -9 11 -9 25 0 16 6 25 15 25 8 0 15 -4 15 -9z
m89 -3 c0 -7 -4 -22 -9 -33 -7 -17 -9 -15 -9 13 -1 17 4 32 9 32 6 0 10 -6 9
-12z m409 -75 c-3 -28 -3 -28 -16 -6 -9 17 -9 28 0 50 11 27 12 27 15 6 3 -13
3 -35 1 -50z m106 48 c7 -10 -22 -37 -30 -28 -9 8 3 37 15 37 5 0 12 -4 15 -9z
m116 -46 c0 -7 -6 -18 -14 -24 -12 -10 -18 -7 -30 18 -21 40 -21 42 14 30 17
-6 30 -17 30 -24z m-840 -10 c23 -38 20 -55 -11 -55 -16 0 -19 7 -19 45 0 25
2 45 4 45 2 0 14 -16 26 -35z m160 -22 c0 -35 -3 -44 -10 -33 -16 25 -11 80 7
80 2 0 3 -21 3 -47z m-220 -5 c0 -16 -3 -19 -11 -11 -6 6 -8 16 -5 22 11 17
16 13 16 -11z m159 0 c0 -7 -4 -22 -9 -33 -7 -17 -9 -15 -9 13 -1 17 4 32 9
32 6 0 10 -6 9 -12z m682 -41 c-8 -8 -11 -3 -11 19 1 25 2 27 11 11 8 -14 8
-22 0 -30z m-191 18 c0 -8 -4 -15 -10 -15 -5 0 -10 7 -10 15 0 8 5 15 10 15 6
0 10 -7 10 -15z m260 -15 c0 -5 -2 -10 -4 -10 -3 0 -8 5 -11 10 -3 6 -1 10 4
10 6 0 11 -4 11 -10z m-630 -30 c12 -23 12 -24 -3 -11 -10 7 -17 20 -17 29 0
18 3 16 20 -18z m471 10 c15 0 10 -17 -8 -24 -9 -4 -20 -1 -25 6 -12 21 -9 31
8 24 9 -3 20 -6 25 -6z m-696 -23 c0 -26 -20 -25 -23 2 -3 16 1 22 10 19 7 -3
13 -12 13 -21z m809 -24 c-17 -12 -19 -12 -22 2 -2 9 2 23 9 31 11 14 14 13
22 -2 7 -13 5 -21 -9 -31z m-939 2 c58 -17 71 -25 73 -44 3 -17 0 -22 -10 -19
-7 3 -44 13 -82 24 -51 14 -73 26 -88 47 l-20 28 29 -7 c15 -4 60 -17 98 -29z
m725 32 c0 -2 -12 -14 -26 -28 -25 -22 -26 -23 -15 -2 9 18 19 26 39 32 1 1 2
0 2 -2z m-540 -27 c0 -11 -6 -20 -14 -20 -9 0 -12 7 -9 20 3 11 9 20 14 20 5
0 9 -9 9 -20z m118 -38 c4 -25 -6 -28 -33 -9 -10 8 -15 19 -11 26 12 19 41 8
44 -17z m333 -9 c-6 -20 -13 -27 -27 -25 -46 7 -49 13 -14 32 46 25 50 25 41
-7z m-237 -22 c17 -19 17 -21 3 -21 -19 0 -57 34 -57 50 0 14 30 -2 54 -29z
m566 24 c-7 -9 -15 -13 -17 -11 -7 7 7 26 19 26 6 0 6 -6 -2 -15z m-169 -10
c0 -6 -10 -12 -23 -13 -19 -4 -20 -2 -9 12 15 17 33 18 32 1z m-627 -1 c17 -6
23 -44 7 -44 -24 0 -38 13 -34 31 6 21 6 21 27 13z m296 -14 c0 -5 -4 -10 -10
-10 -5 0 -10 5 -10 10 0 6 5 10 10 10 6 0 10 -4 10 -10z m-211 -27 c25 -31 22
-37 -13 -24 -16 7 -26 18 -26 31 0 27 15 25 39 -7z m664 13 c3 -8 -3 -22 -14
-32 -17 -16 -22 -16 -29 -4 -13 21 -12 37 3 43 22 10 35 7 40 -7z m116 -45
c31 -59 37 -85 25 -116 -5 -12 -19 7 -51 65 -35 65 -42 85 -32 96 18 22 24 18
58 -45z m-329 8 c0 -14 -5 -19 -17 -17 -23 4 -28 25 -6 31 10 3 19 5 21 6 1 0
2 -8 2 -20z m-350 -10 c0 -6 -4 -7 -10 -4 -5 3 -10 11 -10 16 0 6 5 7 10 4 6
-3 10 -11 10 -16z m215 11 c-8 -13 -45 -13 -65 0 -11 7 -3 10 28 10 26 0 41
-4 37 -10z m281 -46 c-6 -15 -33 -30 -41 -22 -3 2 0 21 6 42 10 38 11 38 26
17 8 -12 12 -29 9 -37z m-689 14 c24 -23 33 -41 33 -65 0 -36 2 -38 29 -23 14
7 23 4 40 -14 l22 -23 -81 -43 c-45 -23 -83 -40 -85 -38 -1 1 -6 56 -10 121
-8 132 -4 139 52 85z m858 -138 c-7 -11 -245 -14 -245 -3 0 4 14 22 32 40 23
24 41 33 64 33 38 0 49 12 35 37 -7 14 -5 23 11 41 l22 22 43 -80 c24 -44 41
-85 38 -90z m-242 128 c-4 -19 -12 -28 -24 -28 -19 0 -19 1 2 30 26 35 29 35
22 -2z m-296 5 c4 -11 -26 -27 -35 -19 -2 3 -2 12 2 21 6 18 27 16 33 -2z
m-220 -4 c25 -9 26 -11 10 -20 -18 -11 -47 3 -47 22 0 11 3 11 37 -2z m323
-19 c13 -8 13 -10 -2 -10 -9 0 -20 5 -23 10 -8 13 5 13 25 0z m-200 -35 c0
-15 -21 -12 -30 5 -11 20 -10 21 9 10 12 -6 21 -13 21 -15z m-60 -5 c17 -33 1
-44 -26 -19 -18 17 -21 25 -12 31 20 12 26 10 38 -12z m350 -10 c0 -5 -9 -10
-20 -10 -11 0 -20 5 -20 10 0 6 9 10 20 10 11 0 20 -4 20 -10z m78 -12 c-2
-17 -9 -22 -23 -20 -26 5 -29 8 -22 27 4 8 16 15 27 15 16 0 21 -5 18 -22z
m-238 7 c0 -2 -9 -9 -19 -14 -14 -8 -22 -7 -31 4 -11 13 -8 15 19 15 17 0 31
-2 31 -5z m-81 -29 c10 -12 8 -17 -7 -25 -15 -8 -23 -7 -32 4 -13 16 -6 35 14
35 8 0 19 -6 25 -14z m137 -2 c-3 -9 -6 -20 -6 -25 0 -12 -47 -12 -55 1 -3 5
7 16 22 24 36 20 47 20 39 0z m84 -20 c0 -9 -11 -14 -30 -14 -32 0 -33 1 -24
23 6 18 54 10 54 -9z m-320 -29 c15 -18 20 -14 -54 -53 -58 -31 -109 -41 -120
-23 -6 9 127 89 150 90 6 1 17 -6 24 -14z m193 -35 c14 -11 30 -20 35 -20 6 0
14 9 17 20 5 14 15 20 37 20 21 0 29 -4 25 -13 -3 -7 -15 -49 -27 -92 -12 -44
-24 -82 -25 -83 -7 -8 -184 171 -179 179 10 17 90 10 117 -11z m197 14 c0 -4
-9 -37 -20 -74 -14 -48 -28 -73 -46 -85 -14 -9 -27 -15 -29 -13 -1 2 9 42 23
91 23 77 28 87 49 87 13 0 23 -3 23 -6z"/>
</g>
</svg>
